# xmcd
#
# Track frame offsets:
#	150
#	10618
#	21086
#	30122
#	40337
#	51819
#	67023
#	76216
#	87534
#	98439
#	106640
#	116298
#	129947
#	141453
#	152088
#	163839
#	178605
#	186872
#	196740
#	209281
#	219374
#	232045
#	244297
#	255327
#	265011
#	275030
#	284655
#	293195
#	302954
#	314212
#
# Disc length: 4346 seconds
#
# Revision: 0
# Processed by: cddbd v1.5.2PL0 Copyright (c) Steve Scherf et al.
# Submitted via: dBpowerAMP V4.0
#
DISCID=aa10f81e
DTITLE=marty robbins - Rocks
DYEAR=1900
DGENRE=
TTITLE0=jeannie and johnnie
TTITLE1=grown up tears
TTITLE2=ruby ann
TTITLE3=it's driving me crazy
TTITLE4=maybelline
TTITLE5=baby's gone
TTITLE6=ain't life a crying shame
TTITLE7=you've been so busy baby
TTITLE8=sometimes i'm tempted
TTITLE9=teeanger's dad
TTITLE10=long tall sally
TTITLE11=respectfully miss brooks
TTITLE12=long gone lonesome blues
TTITLE13=pain and misery
TTITLE14=that's all right
TTITLE15=tennessee toddy
TTITLE16=i'll know you're gone
TTITLE17=keep deep in the blues
TTITLE18=you don't owe me a thing
TTITLE19=mean mama blues
TTITLE20=mister teardrop
TTITLE21=pretty mama
TTITLE22=i can't quit (i've gone too far)
TTITLE23=baby i need you (like i need you)
TTITLE24=footprints in the sun
TTITLE25=just married
TTITLE26=teenage dreams
TTITLE27=stairway of love
TTITLE28=she was only seventeen
TTITLE29=sugaree (live)
EXTD=
EXTT0=
EXTT1=
EXTT2=
EXTT3=
EXTT4=
EXTT5=
EXTT6=
EXTT7=
EXTT8=
EXTT9=
EXTT10=
EXTT11=
EXTT12=
EXTT13=
EXTT14=
EXTT15=
EXTT16=
EXTT17=
EXTT18=
EXTT19=
EXTT20=
EXTT21=
EXTT22=
EXTT23=
EXTT24=
EXTT25=
EXTT26=
EXTT27=
EXTT28=
EXTT29=
PLAYORDER=
